<svg xmlns="http://www.w3.org/2000/svg" viewBox="0 0 345.07 403.76"><defs><style>.cls-1{fill:#f05e46;}.cls-2,.cls-9{fill:#172540;}.cls-3{fill:#f59c26;}.cls-4{fill:#ac4a07;}.cls-5{fill:#b77821;}.cls-6{fill:#f07927;}.cls-7{fill:#87591b;}.cls-8{fill:#eff4fa;}.cls-9{font-size:69.64px;font-family:Montserrat-ExtraBold, Montserrat;font-weight:800;}.cls-10{letter-spacing:-0.03em;}</style></defs><g id="Calque_2" data-name="Calque 2"><g id="Logos_carre" data-name="Logos carre"><g id="Sigle"><polygon id="Principale_Rouge" data-name="Principale Rouge" class="cls-1" points="58.79 108.22 164.08 314.49 58.84 314.49 6.72 212.36 58.79 108.22"/><polygon id="Principale_Bleu" data-name="Principale Bleu" class="cls-2" points="109.9 6 58.79 108.22 286.3 108.19 235.19 6 109.9 6"/><polygon id="Principale_Jaune" data-name="Principale Jaune" class="cls-3" points="286.28 108.21 180.99 314.47 286.23 314.47 338.35 212.35 286.28 108.21"/><polygon id="Secondaire_Gauche" data-name="Secondaire Gauche" class="cls-4" points="111.43 211.34 148.86 108.22 58.79 108.22 111.43 211.34"/><polygon id="Secondaire_Droite" data-name="Secondaire Droite" class="cls-5" points="233.63 211.35 286.28 108.21 195.71 108.22 233.63 211.35"/><polygon id="Secondaire_Bas" data-name="Secondaire Bas" class="cls-6" points="111.43 211.34 233.63 211.35 180.99 314.47 164.08 314.49 111.43 211.34"/><polygon id="Secondaire_Centre" data-name="Secondaire Centre" class="cls-7" points="148.86 108.22 195.71 108.22 233.63 211.35 111.43 211.34 148.86 108.22"/><path id="A" class="cls-8" d="M203.9,59.39l73.35,196.19H215.13l-9.48-32.29H136.87l-9.48,32.29H65.27L138.62,59.39ZM149.85,180.47H192.2l-20.94-69Z"/><g id="Contour"><path class="cls-8" d="M235.19,6,338.35,212.35,286.23,314.47l-227.39,0L6.72,212.36,109.9,6H235.19m3.71-6H106.19l-1.65,3.32L1.36,209.68,0,212.39l1.38,2.7L53.49,317.22l1.67,3.27h3.68l227.39,0h3.68l1.67-3.27,52.11-102.13,1.38-2.7-1.35-2.71L240.56,3.32,238.9,0Z"/></g></g><text class="cls-9" transform="translate(18.2 385.1)">A<tspan class="cls-10" x="54.74" y="0">P</tspan><tspan x="104.18" y="0">TERO</tspan></text></g></g></svg>